# This file uses centimeters as units for non-parametric coordinates.

mtllib desintegradora2.mtl
v -2.829715 -2.700727 -1.551311
v -2.829715 -2.813947 -1.555747
v -2.829715 -2.814101 -1.551311
v -3.192557 -2.842354 -1.551311
v -2.808821 -2.842354 -1.551311
v -2.808821 -2.842354 -0.961180
v -3.192557 -2.842354 -0.961180
v -2.808821 -2.518728 -0.967737
v -2.367209 -2.518728 -0.967737
v -2.367209 -2.498709 -1.543396
v -2.808821 -2.498709 -1.543396
v -3.192557 -0.712899 -0.961180
v -3.192557 -0.712899 -1.551311
v -2.377383 -2.194203 -0.955022
v -1.969314 -2.182961 -0.954581
v -1.960499 -2.595758 -0.970755
v -1.956376 -2.595644 -0.970750
v -2.364445 -2.586867 -1.546849
v -1.960500 -2.498709 -1.543396
v -1.960499 -2.575739 -1.546414
v -1.960499 -2.813947 -1.555747
v -1.960499 -2.833965 -0.980088
v -2.808821 -2.833965 -0.980088
v -2.808821 -2.814101 -1.551311
v -2.377384 -2.174184 -1.530680
v -1.956376 -2.575625 -1.546409
v -2.364445 -2.606886 -0.971191
v -1.969314 -2.162942 -1.530240
v -2.378411 -1.416736 -0.967138
v -2.808821 -1.416736 -0.967138
v -2.808821 -1.416736 -1.543189
v -2.378411 -1.416736 -1.543189
v -2.386577 -1.734010 -1.543189
v -2.386577 -1.734010 -0.967138
v -3.166854 -0.567313 -0.961180
v -3.166854 -0.567313 -1.551311
v -1.978508 -1.747702 -1.543189
v -1.978508 -1.747702 -0.967138
v -2.377655 -1.387372 -1.543189
v -1.971700 -1.400994 -1.543189
v -1.971701 -1.416736 -1.543189
v -3.096632 -0.460736 -0.961180
v -3.096632 -0.460736 -1.551311
v -2.808821 -2.700726 -1.551311
v -3.000708 -0.421726 -0.961180
v -3.000708 -0.421726 -1.551311
v -1.969586 -1.401065 -0.967138
v -1.969586 -1.401065 -1.543189
v -2.808821 -1.032759 -0.967138
v -1.971700 -1.032759 -0.967138
v -1.971700 -1.032759 -1.543189
v -2.808821 -1.032759 -1.543189
v -2.808821 -0.421726 -0.961180
v -2.808821 -0.421726 -1.551311
v -1.971700 -1.400994 -0.967138
v -2.377655 -1.387372 -0.967138
v -1.971701 -1.416736 -0.967138
vt 0.375000 0.160211
vt 0.375000 0.250000
vt 0.373074 0.250000
vt 0.375000 0.750000
vt 0.625000 0.750000
vt 0.625000 1.000000
vt 0.375000 1.000000
vt 0.381009 0.750000
vt 0.508024 0.750000
vt 0.508024 1.000000
vt 0.381009 1.000000
vt 0.125000 0.000000
vt 0.375000 0.000000
vt 0.375000 0.219928
vt 0.125000 0.219928
vt 0.625000 0.500000
vt 0.625000 0.750000
vt 0.428405 0.750000
vt 0.375000 0.502526
vt 0.375000 0.500000
vt 0.375000 0.000000
vt 0.428405 0.000000
vt 0.421624 0.248952
vt 0.375000 0.247474
vt 0.625000 0.250000
vt 0.625000 0.500000
vt 0.381009 0.500000
vt 0.381009 0.251927
vt 0.375000 0.251927
vt 0.625000 1.000000
vt 0.428405 1.000000
vt 0.875000 0.061089
vt 0.875000 0.250000
vt 0.625000 0.061089
vt 0.375000 0.250000
vt 0.125000 0.250000
vt 0.125000 0.247474
vt 0.375000 0.750000
vt 0.625000 0.000000
vt 0.875000 0.000000
vt 0.875000 0.250000
vt 0.625000 0.250000
vt 0.508024 1.000000
vt 0.384231 1.000000
vt 0.384231 0.750000
vt 0.508024 0.750000
vt 0.396178 0.750000
vt 0.625000 0.750000
vt 0.625000 1.000000
vt 0.396178 1.000000
vt 0.375000 0.250000
vt 0.125000 0.250000
vt 0.625000 0.000000
vt 0.875000 0.000000
vt 0.875000 0.250000
vt 0.625000 0.250000
vt 0.375000 0.750000
vt 0.375000 0.501296
vt 0.386344 0.501048
vt 0.430025 0.251433
vt 0.430200 0.498843
vt 0.375000 0.500000
vt 0.381009 0.000000
vt 0.508024 0.000000
vt 0.508819 0.069914
vt 0.381009 0.160210
vt 0.499988 0.250000
vt 0.499988 0.500000
vt 0.375000 0.250000
vt 0.625000 0.500000
vt 0.375000 0.500000
vt 0.384231 0.250000
vt 0.625000 0.250000
vt 0.625000 0.500000
vt 0.384231 0.500000
vt 0.625000 0.250000
vt 0.625000 0.500000
vt 0.375000 0.248704
vt 0.125000 0.250000
vt 0.125000 0.248704
vt 0.375000 0.000000
vt 0.396178 0.000000
vt 0.386344 0.248952
vt 0.625000 0.688911
vt 0.508819 0.680086
vt 0.875000 0.010249
vt 0.875000 0.250000
vt 0.625000 0.010249
vt 0.625000 0.739751
vt 0.508241 0.730882
vt 0.625000 0.000000
vt 0.875000 0.000000
vt 0.875000 0.002918
vt 0.633010 0.000866
vt 0.627778 0.033424
vt 0.871647 0.035491
vt 0.875000 0.014627
vt 0.875000 0.250000
vt 0.871559 0.147236
vt 0.627524 0.147236
vt 0.384231 0.000000
vt 0.508024 0.000000
vt 0.508241 0.019118
vt 0.627524 0.186893
vt 0.871559 0.186893
vt 0.625000 0.735373
vt 0.611383 0.735369
vt 0.611385 0.747080
vt 0.625000 0.747082
vt 0.375000 0.530072
vn -1.000000 0.000000 0.000000
vn -1.000000 0.000000 0.000000
vn -1.000000 0.000000 0.000000
vn 0.000000 -1.000000 0.000000
vn 0.000000 -1.000000 0.000000
vn 0.000000 -1.000000 0.000000
vn 0.000000 -1.000000 0.000000
vn 0.000000 0.999396 0.034754
vn 0.000000 0.999396 0.034754
vn 0.000000 0.999396 0.034754
vn 0.000000 0.999396 0.034754
vn -1.000000 0.000000 0.000000
vn -1.000000 0.000000 0.000000
vn -0.999936 0.011297 0.000000
vn -0.999936 0.011297 0.000000
vn 0.000000 -0.039151 0.999233
vn 0.000000 -0.039151 0.999233
vn 0.000000 -0.039151 0.999233
vn 0.000000 -0.039151 0.999233
vn 0.000000 -0.039151 0.999233
vn -0.000000 0.039151 -0.999233
vn -0.000000 0.039151 -0.999233
vn -0.000001 0.039151 -0.999233
vn -0.000000 0.039151 -0.999233
vn 0.000000 -0.999396 -0.034754
vn 0.000000 -0.999396 -0.034754
vn 0.000000 -0.999396 -0.034754
vn 0.000000 -0.999396 -0.034754
vn 0.000000 -0.999396 -0.034754
vn 0.000000 -0.999396 -0.034754
vn -0.999510 -0.031293 -0.001088
vn -0.999510 -0.031293 -0.001088
vn -0.999510 -0.031293 -0.001088
vn -0.999510 -0.031293 -0.001088
vn 1.000000 0.000000 0.000000
vn 1.000000 0.000000 0.000000
vn 1.000000 0.000000 0.000000
vn 1.000000 0.000000 0.000000
vn 0.027583 -0.999016 -0.034741
vn 0.027583 -0.999016 -0.034741
vn 0.027583 -0.999016 -0.034741
vn 0.027583 -0.999016 -0.034741
vn 0.000000 -0.039151 0.999233
vn 0.000000 -0.039151 0.999233
vn 0.000000 -0.039151 0.999233
vn -0.027558 0.999016 0.034741
vn -0.027558 0.999016 0.034741
vn -0.027558 0.999016 0.034741
vn -0.027558 0.999016 0.034741
vn 0.999510 0.031293 0.001088
vn 0.999510 0.031293 0.001088
vn 0.999510 0.031293 0.001088
vn 0.999510 0.031293 0.001088
vn 0.000000 -1.000000 0.000000
vn 0.000000 -1.000000 0.000000
vn 0.000000 -1.000000 0.000000
vn 0.000000 -1.000000 0.000000
vn -0.999669 0.025730 0.000000
vn -0.999669 0.025730 0.000000
vn -0.999669 0.025730 0.000000
vn -0.999669 0.025730 0.000000
vn -0.999936 0.011297 0.000000
vn -0.934657 0.355552 0.000000
vn -0.934657 0.355552 0.000000
vn -0.999936 0.011297 0.000000
vn -0.033536 -0.999438 0.000000
vn -0.033536 -0.999438 0.000000
vn -0.033536 -0.999438 0.000000
vn -0.033536 -0.999438 0.000000
vn 0.000000 0.000000 -1.000000
vn -0.000000 0.000000 -1.000000
vn 0.000000 0.000000 -1.000000
vn 0.000000 0.000000 -1.000000
vn -0.934657 0.355552 0.000000
vn -0.835036 0.550195 0.000000
vn -0.835036 0.550195 0.000000
vn -0.934657 0.355552 0.000000
vn 0.000000 0.039151 -0.999233
vn -0.000000 0.039151 -0.999233
vn -0.000000 0.039151 -0.999233
vn -0.000000 0.039151 -0.999233
vn 0.000000 0.039151 -0.999233
vn 0.000000 0.039151 -0.999233
vn -0.000001 0.008059 -0.999968
vn -0.000001 0.008059 -0.999968
vn -0.376711 0.926331 0.000000
vn -0.134310 0.990939 0.000000
vn -0.134310 0.990939 0.000000
vn -0.376711 0.926331 0.000000
vn 0.999669 -0.025730 0.000000
vn 0.999669 -0.025730 0.000000
vn 0.999669 -0.025730 0.000000
vn 0.999669 -0.025730 0.000000
vn 0.000000 1.000000 0.000000
vn 0.000000 1.000000 0.000000
vn 0.000000 1.000000 0.000000
vn 0.000000 1.000000 0.000000
vn -0.134310 0.990939 0.000000
vn -0.134310 0.990939 0.000000
vn 0.000000 1.000000 0.000000
vn 0.000000 1.000000 0.000000
vn 0.033559 0.999437 0.000000
vn 0.033559 0.999437 0.000000
vn 0.033559 0.999437 0.000000
vn 0.033559 0.999437 0.000000
vn 0.000000 0.000000 1.000000
vn 0.000000 0.000000 1.000000
vn 0.000000 0.000000 1.000000
vn 0.000000 0.000000 1.000000
vn 0.000000 -0.039151 0.999233
vn 0.000000 -0.039151 0.999233
vn 0.000000 -0.039151 0.999233
vn 0.000000 -0.039151 0.999233
vn 0.000000 -0.039151 0.999233
vn 0.000000 -0.039151 0.999233
vn -0.000000 0.039151 -0.999233
vn -0.000001 0.039152 -0.999233
vn -0.000001 0.039152 -0.999233
vn -0.000001 0.039152 -0.999233
vn -0.000000 0.039151 -0.999233
vn -0.000001 0.039151 -0.999233
vn 1.000000 0.000000 0.000000
vn 1.000000 0.000000 0.000000
vn 1.000000 0.000000 0.000000
vn 1.000000 0.000000 0.000000
vn 0.000000 0.000000 -1.000000
vn 0.000000 0.000000 -1.000000
vn 0.000000 0.000000 -1.000000
vn -0.000000 0.000000 -1.000000
vn 0.000000 0.000000 -1.000000
vn 0.000000 0.000000 -1.000000
vn 0.000000 0.000000 -1.000000
vn 0.000000 0.000000 -1.000000
vn 0.000000 0.000000 -1.000000
vn 0.000000 0.000000 -1.000000
vn 0.000000 0.000000 -1.000000
vn 0.000000 0.000000 -1.000000
vn 1.000000 -0.000000 0.000000
vn 1.000000 -0.000000 0.000000
vn 1.000000 -0.000000 0.000000
vn 1.000000 -0.000000 0.000000
vn 1.000000 -0.000000 0.000000
vn 1.000000 -0.000000 0.000000
vn 1.000000 -0.000000 0.000000
vn 1.000000 -0.000000 0.000000
vn 1.000000 -0.000000 0.000000
vn 1.000000 -0.000000 0.000000
vn 0.000000 0.000000 1.000000
vn 0.000000 0.000000 1.000000
vn 0.000000 0.000000 1.000000
vn 0.000000 0.000000 1.000000
vn 0.000000 0.000000 1.000000
vn 0.000000 0.000000 1.000000
vn 1.000000 -0.000000 0.000000
vn 1.000000 -0.000000 0.000000
vn 1.000000 0.000000 0.000000
vn 1.000000 0.000000 0.000000
vn 1.000000 -0.000000 0.000000
vn 1.000000 -0.000000 0.000000
vn 1.000000 0.000000 0.000000
vn 0.000000 0.000000 1.000000
vn 0.000000 0.000000 1.000000
vn 0.000000 0.000000 1.000000
vn 0.000000 0.000000 1.000000
vn 0.000000 0.000000 1.000000
vn 0.000000 0.000000 1.000000
vn 0.000000 0.000000 1.000000
vn 0.000000 0.000000 1.000000
vn 0.000000 0.000000 1.000000
vn 0.000000 0.000000 1.000000
vn 0.000000 0.000000 1.000000
vn 0.000000 0.000000 1.000000
vn 0.000000 0.000000 1.000000
vn -0.000001 0.000000 -1.000000
vn -0.000001 0.008059 -0.999968
vn -0.000001 0.008059 -0.999968
vn -0.000001 0.000000 -1.000000
vn -0.000001 0.000000 -1.000000
vn -0.000001 0.000000 -1.000000
vn -0.000001 0.000000 -1.000000
vn -0.000001 0.000000 -1.000000
vn -0.000001 0.000000 -1.000000
vn -0.000001 0.000000 -1.000000
vn -0.000001 0.000000 -1.000000
s off
usemtl desintegradora:lambert25SG
f 1/1/1 2/2/2 3/3/3
f 4/4/4 5/5/5 6/6/6 7/7/7
f 8/8/8 9/9/9 10/10/10 11/11/11
f 4/12/12 7/13/13 12/14/14 13/15/15
f 15/16/16 14/17/17 9/18/18 16/19/19 17/20/20
f 18/21/21 10/22/22 19/23/23 20/24/24
f 2/2/25 21/25/26 22/26/27 23/27/28 24/28/29 3/29/30
f 9/18/31 14/17/32 25/30/33 10/31/34
f 16/32/35 22/33/36 21/25/37 20/34/38
f 20/24/39 26/35/40 17/36/41 16/37/42
f 9/18/43 27/38/44 16/19/45
f 25/39/46 14/40/47 15/41/48 28/42/49
f 26/35/50 28/42/51 15/16/52 17/20/53
f 29/43/54 30/44/55 31/45/56 32/46/57
f 32/47/58 33/48/59 34/49/60 29/50/61
f 12/14/62 35/51/63 36/52/64 13/15/65
f 34/53/66 33/54/67 37/55/68 38/56/69
f 32/47/70 39/57/71 40/58/72 41/59/73
f 35/51/74 42/60/75 43/61/76 36/62/77
f 11/63/78 10/64/79 18/65/80 20/34/81 21/25/82 2/2/83 1/1/84 44/66/85
f 42/60/86 45/67/87 46/68/88 43/61/89
f 47/69/90 38/56/91 37/70/92 48/71/93
f 49/72/94 50/73/95 51/74/96 52/75/97
f 46/68/98 45/67/99 53/76/100 54/77/101
f 55/78/102 47/69/103 48/79/104 40/80/105
f 56/81/106 29/82/107 57/83/108 55/78/109
f 23/27/110 22/26/111 16/84/112 27/85/113 9/9/114 8/8/115
f 10/22/116 25/39/117 28/42/118 26/35/119 20/24/120 19/23/121
f 40/86/122 51/87/123 50/73/124 55/88/125
f 52/75/126 51/74/127 40/89/128 39/90/129 32/46/130 31/45/131
f 48/71/132 37/70/133 33/48/134 32/47/135 41/59/136 40/58/137
f 6/91/138 5/92/139 24/93/140 23/94/141 8/95/142 11/96/143 44/97/144 54/98/145 31/99/146 30/100/147
f 30/101/148 29/102/149 56/103/150 55/88/151 50/73/152 49/72/153
f 6/91/154 30/100/155 49/104/156 52/105/157 31/99/158 54/98/159 53/76/160
f 42/60/161 35/51/162 12/14/163 7/13/164 6/91/165 53/76/166 45/67/167
f 29/82/168 34/53/169 38/56/170 47/69/171 55/78/172 57/83/173
f 54/77/174 44/106/175 1/107/176 3/108/177 24/109/178 5/5/179 4/4/180 13/110/181 36/62/182 43/61/183 46/68/184
