# This file uses centimeters as units for non-parametric coordinates.

mtllib estante.mtl
v 8.117504 -5.960591 3.792223
v 8.117504 -5.967430 3.792223
v 8.117504 -5.967430 0.344571
v 8.117504 -5.960591 0.344571
v 8.820270 -5.960591 0.344571
v 8.820270 -5.960591 3.792223
v -3.736652 13.973703 0.344571
v -3.736652 14.545910 0.344571
v -3.492441 14.545910 0.344571
v -3.492441 13.973703 0.344571
v -3.492441 7.520995 0.344571
v 7.930794 7.520995 0.344571
v 7.930794 6.927441 0.344571
v -3.492441 6.927441 0.344571
v 7.930794 0.893367 0.344571
v 8.117504 0.893367 0.344571
v 8.117504 0.299813 0.344571
v 7.930794 0.299813 0.344571
v -3.492441 13.973703 3.792223
v -3.492441 7.520995 3.792223
v -3.736652 7.520995 3.792223
v -3.736652 6.927441 3.792223
v -3.492441 6.927441 3.792223
v 7.930794 -5.373876 3.792223
v 7.930794 0.299813 3.792223
v 7.930794 -5.373876 0.344571
v 7.930794 0.893367 3.792223
v -3.492441 0.893367 3.792223
v -3.492441 0.299813 3.792223
v 7.930794 -5.960591 3.792223
v 8.117504 -5.373876 3.792223
v -4.381916 14.545910 0.344571
v -4.381916 14.545910 3.792223
v -3.736652 14.545910 3.792223
v 7.930794 6.927441 3.792223
v -3.736652 14.567257 3.792223
v -3.736652 14.567257 0.344571
v 7.930794 7.520995 3.792223
v 8.117504 7.520995 0.344571
v 8.117504 6.927441 0.344571
v -3.736652 13.973703 3.792223
v -3.492441 14.545910 3.792223
v 8.117504 0.299813 3.792223
v 8.117504 0.893367 3.792223
v 8.820270 14.545910 0.344571
v 8.820270 14.545910 3.792223
v 7.930794 13.973703 3.792223
v 7.930794 13.973703 0.344571
v 8.117504 14.567257 3.792223
v 8.117504 14.567257 0.344571
v 8.117504 14.545910 0.344571
v 8.117504 13.973703 0.344571
v 7.930794 14.545910 0.344571
v 8.117504 6.927441 3.792223
v 8.117504 7.520995 3.792223
v 8.117504 14.545910 3.792223
v 8.117504 13.973703 3.792223
v 7.930794 14.545910 3.792223
v 8.117504 -5.373876 0.344571
v -3.492441 0.893367 0.344571
v -4.381916 -5.960591 3.792223
v -3.736652 -5.960591 3.792223
v -3.736652 -5.373876 3.792223
v -3.492441 -5.373876 3.792223
v -3.736652 0.299813 3.792223
v -3.736652 0.893367 3.792223
v -3.492441 0.299813 0.344571
v 7.930794 -5.960591 0.344571
v -4.381916 -5.960591 0.344571
v -3.736652 6.927441 0.344571
v -3.736652 7.520995 0.344571
v -3.492441 -5.373876 0.344571
v -3.736652 -5.967430 3.792223
v -3.736652 -5.967430 0.344571
v -3.492441 -5.960591 3.792223
v -3.736652 0.299813 0.344571
v -3.736652 0.893367 0.344571
v -3.736652 -5.960591 0.344571
v -3.492441 -5.960591 0.344571
v -3.736652 -5.373876 0.344571
vt 0.377881 1.000000
vt 0.375000 1.000000
vt 0.375000 0.750000
vt 0.377881 0.750000
vt 0.427477 0.750000
vt 0.625000 0.750000
vt 0.625000 1.000000
vt 0.427477 1.000000
vt 0.375000 0.500000
vt 0.616009 0.500000
vt 0.616008 0.505150
vt 0.375000 0.505150
vt 0.625000 0.505150
vt 0.625000 0.746062
vt 0.375000 0.746062
vt 0.375000 0.505150
vt 0.625000 0.746062
vt 0.625000 0.750000
vt 0.375000 0.750000
vt 0.375000 0.746062
vt 0.875000 0.164357
vt 0.875000 0.243024
vt 0.625000 0.243024
vt 0.625000 0.164357
vt 0.625000 0.244850
vt 0.625000 0.250000
vt 0.375000 0.250000
vt 0.375000 0.244850
vt 0.375000 0.007153
vt 0.375000 0.076322
vt 0.125000 0.076322
vt 0.125000 0.007153
vt 0.625000 0.003938
vt 0.625000 0.244850
vt 0.375000 0.244850
vt 0.375000 0.003938
vt 0.375000 0.000000
vt 0.427477 0.000000
vt 0.427478 0.007153
vt 0.556361 0.500000
vt 0.375000 0.500000
vt 0.375000 0.250000
vt 0.556361 0.250000
vt 0.375000 0.003938
vt 0.125000 0.244850
vt 0.125000 0.003938
vt 0.616009 0.250000
vt 0.625000 0.250000
vt 0.625000 0.500000
vt 0.875000 0.003938
vt 0.875000 0.244850
vt 0.625000 0.003938
vt 0.625000 0.750000
vt 0.375000 0.750000
vt 0.375000 0.083558
vt 0.375000 0.157121
vt 0.125000 0.157121
vt 0.125000 0.083558
vt 0.375000 0.250000
vt 0.375000 0.244850
vt 0.616008 0.244850
vt 0.375000 0.000000
vt 0.625000 0.000000
vt 0.625000 0.000000
vt 0.875000 0.000000
vt 0.875000 0.250000
vt 0.625000 0.250000
vt 0.375000 0.003938
vt 0.125000 0.244850
vt 0.125000 0.003938
vt 0.625000 0.000000
vt 0.875000 0.000000
vt 0.875000 0.250000
vt 0.616009 0.750000
vt 0.375000 0.750000
vt 0.375000 0.746062
vt 0.616009 0.746062
vt 0.375000 0.164357
vt 0.375000 0.243024
vt 0.125000 0.243024
vt 0.125000 0.164357
vt 0.375000 0.000000
vt 0.625000 0.000000
vt 0.625000 0.750000
vt 0.625000 1.000000
vt 0.616009 1.000000
vt 0.427477 0.250000
vt 0.625000 0.500000
vt 0.427477 0.500000
vt 0.375000 0.000000
vt 0.616009 0.000000
vt 0.616008 0.003938
vt 0.427478 0.742847
vt 0.375000 0.742847
vt 0.375000 0.673678
vt 0.427478 0.673678
vt 0.427478 0.666442
vt 0.375000 0.666442
vt 0.375000 0.592879
vt 0.427477 0.592879
vt 0.427477 0.585642
vt 0.375000 0.585642
vt 0.375000 0.506976
vt 0.427477 0.506976
vt 0.427477 0.243024
vt 0.427478 0.164357
vt 0.427477 0.157121
vt 0.427478 0.083558
vt 0.427478 0.076322
vt 0.875000 0.003938
vt 0.875000 0.244850
vt 0.375000 0.000000
vt 0.556361 0.000000
vt 0.556361 0.007153
vt 0.625000 0.007153
vt 0.625000 0.076322
vt 0.556361 0.076322
vt 0.556361 0.083558
vt 0.625000 0.083558
vt 0.625000 0.157121
vt 0.556361 0.157121
vt 0.556361 0.164357
vt 0.556361 0.243024
vt 0.125000 0.244850
vt 0.125000 0.003938
vt 0.625000 0.250000
vt 0.375000 0.250000
vt 0.375000 0.750000
vt 0.875000 0.083558
vt 0.875000 0.157121
vt 0.375000 0.505150
vt 0.625000 0.505150
vt 0.125000 0.000000
vt 0.125000 0.250000
vt 0.375000 0.500000
vt 0.625000 0.500000
vt 0.875000 0.003938
vt 0.875000 0.244850
vt 0.625000 0.244850
vt 0.625000 0.003938
vt 0.125000 0.000000
vt 0.375000 0.000000
vt 0.375000 0.250000
vt 0.125000 0.250000
vt 0.625000 0.000000
vt 0.875000 0.007153
vt 0.875000 0.076322
vt 0.377881 0.000000
vt 0.377881 0.003938
vt 0.377881 0.244850
vt 0.377881 0.250000
vt 0.375000 0.500000
vt 0.625000 0.500000
vt 0.377881 0.500000
vt 0.375000 0.500000
vt 0.556361 1.000000
vt 0.375000 1.000000
vt 0.375000 0.750000
vt 0.556361 0.750000
vt 0.625000 0.742847
vt 0.625000 0.750000
vt 0.556361 0.742847
vt 0.377881 0.505150
vt 0.625000 0.505150
vt 0.625000 0.746062
vt 0.377881 0.746062
vt 0.556361 0.506976
vt 0.625000 0.506976
vt 0.625000 0.585642
vt 0.556361 0.585642
vt 0.556361 0.592879
vt 0.625000 0.592879
vt 0.625000 0.666442
vt 0.556361 0.666442
vt 0.556361 0.673678
vt 0.625000 0.673678
vn 1.000000 0.000000 0.000000
vn 1.000000 0.000000 0.000000
vn 1.000000 0.000000 0.000000
vn 1.000000 0.000000 0.000000
vn 0.000000 -1.000000 0.000000
vn 0.000000 -1.000000 0.000000
vn 0.000000 -1.000000 0.000000
vn 0.000000 -1.000000 0.000000
vn 0.000000 0.000000 -1.000000
vn 0.000000 0.000000 -1.000000
vn 0.000000 0.000000 -1.000000
vn 0.000000 0.000000 -1.000000
vn 0.000000 0.000000 -1.000000
vn 0.000000 0.000000 -1.000000
vn 0.000000 0.000000 -1.000000
vn 0.000000 0.000000 -1.000000
vn 0.000000 0.000000 -1.000000
vn 0.000000 0.000000 -1.000000
vn 0.000000 0.000000 -1.000000
vn 0.000000 0.000000 -1.000000
vn 1.000000 0.000000 0.000000
vn 1.000000 0.000000 0.000000
vn 1.000000 0.000000 0.000000
vn 1.000000 0.000000 0.000000
vn 0.000000 0.000000 1.000000
vn 0.000000 0.000000 1.000000
vn 0.000000 0.000000 1.000000
vn 0.000000 0.000000 1.000000
vn -1.000000 0.000000 0.000000
vn -1.000000 0.000000 0.000000
vn -1.000000 0.000000 0.000000
vn -1.000000 0.000000 0.000000
vn 0.000000 0.000000 1.000000
vn 0.000000 0.000000 1.000000
vn 0.000000 0.000000 1.000000
vn 0.000000 0.000000 1.000000
vn 0.000000 0.000000 1.000000
vn 0.000000 0.000000 1.000000
vn 0.000000 0.000000 1.000000
vn 0.000000 0.000000 1.000000
vn 0.000000 1.000000 0.000000
vn 0.000000 1.000000 0.000000
vn 0.000000 1.000000 0.000000
vn 0.000000 1.000000 0.000000
vn 0.000000 -1.000000 0.000000
vn 0.000000 -1.000000 0.000000
vn 0.000000 -1.000000 0.000000
vn 0.000000 -1.000000 0.000000
vn -1.000000 0.000000 0.000000
vn -1.000000 0.000000 0.000000
vn -1.000000 0.000000 0.000000
vn -1.000000 0.000000 0.000000
vn 0.000000 1.000000 0.000000
vn 0.000000 1.000000 0.000000
vn 0.000000 1.000000 0.000000
vn 0.000000 1.000000 0.000000
vn 0.000000 0.000000 -1.000000
vn 0.000000 0.000000 -1.000000
vn 0.000000 0.000000 -1.000000
vn 0.000000 0.000000 -1.000000
vn -1.000000 0.000000 0.000000
vn -1.000000 0.000000 0.000000
vn -1.000000 0.000000 0.000000
vn -1.000000 0.000000 0.000000
vn 0.000000 0.000000 1.000000
vn 0.000000 0.000000 1.000000
vn 0.000000 0.000000 1.000000
vn 0.000000 0.000000 1.000000
vn 0.000000 0.000000 1.000000
vn 0.000000 0.000000 1.000000
vn 0.000000 0.000000 1.000000
vn 0.000000 0.000000 1.000000
vn 0.000000 0.000000 1.000000
vn 0.000000 0.000000 1.000000
vn 0.000000 0.000000 1.000000
vn 0.000000 0.000000 1.000000
vn 1.000000 0.000000 0.000000
vn 1.000000 0.000000 0.000000
vn 1.000000 0.000000 0.000000
vn 1.000000 0.000000 0.000000
vn 0.000000 -1.000000 0.000000
vn 0.000000 -1.000000 0.000000
vn 0.000000 -1.000000 0.000000
vn 0.000000 -1.000000 0.000000
vn 0.000000 1.000000 0.000000
vn 0.000000 1.000000 0.000000
vn 0.000000 1.000000 0.000000
vn 0.000000 1.000000 0.000000
vn 0.000000 0.000000 -1.000000
vn 0.000000 0.000000 -1.000000
vn 0.000000 0.000000 -1.000000
vn 0.000000 0.000000 -1.000000
vn -1.000000 0.000000 0.000000
vn -1.000000 0.000000 0.000000
vn -1.000000 0.000000 0.000000
vn -1.000000 0.000000 0.000000
vn 0.000000 0.000000 1.000000
vn 0.000000 0.000000 1.000000
vn 0.000000 0.000000 1.000000
vn 0.000000 0.000000 1.000000
vn 1.000000 0.000000 0.000000
vn 1.000000 0.000000 0.000000
vn 1.000000 0.000000 0.000000
vn 1.000000 0.000000 0.000000
vn 0.000000 1.000000 0.000000
vn 0.000000 1.000000 0.000000
vn 0.000000 1.000000 0.000000
vn 0.000000 1.000000 0.000000
vn 0.000000 0.000000 1.000000
vn 0.000000 0.000000 1.000000
vn 0.000000 0.000000 1.000000
vn 0.000000 0.000000 1.000000
vn 0.000000 0.000000 -1.000000
vn 0.000000 0.000000 -1.000000
vn 0.000000 0.000000 -1.000000
vn 0.000000 0.000000 -1.000000
vn 0.000000 0.000000 -1.000000
vn 0.000000 0.000000 -1.000000
vn 0.000000 0.000000 -1.000000
vn 0.000000 0.000000 -1.000000
vn 0.000000 0.000000 1.000000
vn 0.000000 0.000000 1.000000
vn 0.000000 0.000000 1.000000
vn 0.000000 0.000000 1.000000
vn 0.000000 0.000000 1.000000
vn 0.000000 0.000000 1.000000
vn 0.000000 0.000000 1.000000
vn 0.000000 0.000000 1.000000
vn 0.000000 0.000000 -1.000000
vn 0.000000 0.000000 -1.000000
vn 0.000000 0.000000 -1.000000
vn 0.000000 0.000000 -1.000000
vn 0.000000 0.000000 -1.000000
vn 0.000000 0.000000 -1.000000
vn 0.000000 0.000000 -1.000000
vn 0.000000 0.000000 -1.000000
vn 0.000000 0.000000 -1.000000
vn 0.000000 0.000000 -1.000000
vn 0.000000 0.000000 -1.000000
vn 0.000000 0.000000 -1.000000
vn 0.000000 0.000000 -1.000000
vn 0.000000 0.000000 -1.000000
vn 0.000000 0.000000 -1.000000
vn 0.000000 0.000000 -1.000000
vn 0.000000 0.000000 1.000000
vn 0.000000 0.000000 1.000000
vn 0.000000 0.000000 1.000000
vn 0.000000 0.000000 1.000000
vn 0.000000 0.000000 1.000000
vn 0.000000 0.000000 1.000000
vn 0.000000 0.000000 1.000000
vn 0.000000 0.000000 1.000000
vn 0.000000 0.000000 1.000000
vn 0.000000 0.000000 1.000000
vn 0.000000 0.000000 1.000000
vn 0.000000 0.000000 1.000000
vn 0.000000 0.000000 1.000000
vn 0.000000 0.000000 1.000000
vn 0.000000 0.000000 1.000000
vn 0.000000 0.000000 1.000000
vn 0.000000 1.000000 0.000000
vn 0.000000 1.000000 0.000000
vn 0.000000 1.000000 0.000000
vn 0.000000 1.000000 0.000000
vn 0.000000 0.000000 1.000000
vn 0.000000 0.000000 1.000000
vn 0.000000 0.000000 1.000000
vn 0.000000 0.000000 1.000000
vn 0.000000 0.000000 1.000000
vn 0.000000 0.000000 1.000000
vn 0.000000 0.000000 1.000000
vn 0.000000 0.000000 1.000000
vn 0.000000 0.000000 1.000000
vn 0.000000 0.000000 1.000000
vn 0.000000 0.000000 1.000000
vn 0.000000 0.000000 1.000000
vn 0.000000 0.000000 1.000000
vn 0.000000 0.000000 1.000000
vn 0.000000 0.000000 1.000000
vn 0.000000 0.000000 1.000000
vn 0.000000 -1.000000 0.000000
vn 0.000000 -1.000000 0.000000
vn 0.000000 -1.000000 0.000000
vn 0.000000 -1.000000 0.000000
vn 0.000000 0.000000 1.000000
vn 0.000000 0.000000 1.000000
vn 0.000000 0.000000 1.000000
vn 0.000000 0.000000 1.000000
vn 0.000000 0.000000 -1.000000
vn -0.000000 0.000000 -1.000000
vn 0.000000 0.000000 -1.000000
vn 0.000000 0.000000 -1.000000
vn 1.000000 0.000000 0.000000
vn 1.000000 0.000000 0.000000
vn 1.000000 0.000000 0.000000
vn 1.000000 0.000000 0.000000
vn 0.000000 0.000000 -1.000000
vn 0.000000 0.000000 -1.000000
vn 0.000000 0.000000 -1.000000
vn 0.000000 0.000000 -1.000000
vn -1.000000 0.000000 0.000000
vn -1.000000 0.000000 0.000000
vn -1.000000 0.000000 0.000000
vn -1.000000 0.000000 0.000000
vn 0.000000 0.000000 -1.000000
vn 0.000000 0.000000 -1.000000
vn 0.000000 0.000000 -1.000000
vn 0.000000 0.000000 -1.000000
vn 0.000000 1.000000 0.000000
vn 0.000000 1.000000 0.000000
vn 0.000000 1.000000 0.000000
vn 0.000000 1.000000 0.000000
vn 0.000000 -1.000000 0.000000
vn 0.000000 -1.000000 0.000000
vn 0.000000 -1.000000 0.000000
vn 0.000000 -1.000000 0.000000
vn 0.000000 0.000000 1.000000
vn 0.000000 0.000000 1.000000
vn 0.000000 0.000000 1.000000
vn 0.000000 0.000000 1.000000
vn 1.000000 0.000000 0.000000
vn 1.000000 0.000000 0.000000
vn 1.000000 0.000000 0.000000
vn 1.000000 0.000000 0.000000
vn 0.000000 0.000000 1.000000
vn 0.000000 0.000000 1.000000
vn 0.000000 0.000000 1.000000
vn 0.000000 0.000000 1.000000
vn 0.000000 0.000000 1.000000
vn 0.000000 0.000000 1.000000
vn 0.000000 0.000000 1.000000
vn 0.000000 0.000000 1.000000
vn 0.000000 0.000000 -1.000000
vn 0.000000 0.000000 -1.000000
vn 0.000000 0.000000 -1.000000
vn 0.000000 0.000000 -1.000000
vn -1.000000 0.000000 0.000000
vn -1.000000 0.000000 0.000000
vn -1.000000 0.000000 0.000000
vn -1.000000 0.000000 0.000000
vn 0.000000 -1.000000 0.000000
vn 0.000000 -1.000000 0.000000
vn 0.000000 -1.000000 0.000000
vn 0.000000 -1.000000 0.000000
vn -0.000000 0.000000 -1.000000
vn -0.000000 0.000000 -1.000000
vn -0.000000 0.000000 -1.000000
vn 0.000000 0.000000 -1.000000
vn -0.000000 0.000000 -1.000000
vn -0.000000 0.000000 -1.000000
vn -0.000000 0.000000 -1.000000
vn -0.000000 0.000000 -1.000000
vn 0.000000 0.000000 -1.000000
vn -0.000000 0.000000 -1.000000
vn 0.000000 0.000000 -1.000000
vn -0.000000 0.000000 -1.000000
vn 0.000000 0.000000 -1.000000
vn 0.000000 0.000000 -1.000000
vn 0.000000 0.000000 -1.000000
vn 0.000000 0.000000 -1.000000
vn 0.000000 0.000000 -1.000000
vn 0.000000 0.000000 -1.000000
vn 0.000000 0.000000 -1.000000
vn 0.000000 0.000000 -1.000000
vn 0.000000 0.000000 -1.000000
vn 0.000000 0.000000 -1.000000
vn 0.000000 0.000000 -1.000000
vn 0.000000 0.000000 -1.000000
vn -0.000000 0.000000 -1.000000
vn 0.000000 0.000000 -1.000000
vn -0.000000 0.000000 -1.000000
vn 0.000000 0.000000 -1.000000
s off
usemtl estante:lambert2SG
f 1/1/1 2/2/2 3/3/3 4/4/4
f 4/5/5 5/6/6 6/7/7 1/8/8
f 7/9/9 8/10/10 9/11/11 10/12/12
f 11/13/13 12/14/14 13/15/15 14/16/16
f 15/17/17 16/18/18 17/19/19 18/20/20
f 11/21/21 10/22/22 19/23/23 20/24/24
f 20/25/25 21/26/26 22/27/27 23/28/28
f 24/29/29 25/30/30 18/31/31 26/32/32
f 27/33/33 28/34/34 29/35/35 25/36/36
f 30/37/37 1/38/38 31/39/39 24/29/40
f 8/40/41 32/41/42 33/42/43 34/43/44
f 35/44/45 23/28/46 14/45/47 13/46/48
f 34/47/49 36/48/50 37/49/51 8/10/52
f 12/50/53 11/51/54 20/25/55 38/52/56
f 12/14/57 39/53/58 40/54/59 13/15/60
f 27/55/61 35/56/62 13/57/63 15/58/64
f 34/47/65 41/59/66 19/60/67 42/61/68
f 38/52/69 20/25/70 23/28/71 35/44/72
f 25/36/73 43/62/74 44/63/75 27/33/76
f 6/64/77 5/65/78 45/66/79 46/67/80
f 47/68/81 19/60/82 10/69/83 48/70/84
f 49/71/85 50/72/86 37/73/87 36/48/88
f 51/74/89 52/75/90 48/76/91 53/77/92
f 38/78/93 47/79/94 48/80/95 12/81/96
f 54/82/97 55/83/98 38/52/99 35/44/100
f 51/74/101 50/84/102 49/85/103 56/86/104
f 56/87/105 46/67/106 45/88/107 51/89/108
f 57/90/109 56/91/110 58/92/111 47/68/112
f 8/10/113 37/49/114 50/84/115 51/74/116 53/77/117 48/76/118 10/12/119 9/11/120
f 56/91/121 49/71/122 36/48/123 34/47/124 42/61/125 19/60/126 47/68/127 58/92/128
f 51/89/129 45/88/130 5/6/131 4/5/132 59/93/133 26/94/134 18/95/135 17/96/136 16/97/137 15/98/138 13/99/139 40/100/140 39/101/141 12/102/142 48/103/143 52/104/144
f 1/38/145 6/64/146 46/67/147 56/87/148 57/105/149 47/79/150 38/78/151 55/106/152 54/107/153 35/56/154 27/55/155 44/108/156 43/109/157 25/30/158 24/29/159 31/39/160
f 15/110/161 60/111/162 28/34/163 27/33/164
f 61/112/165 62/113/166 63/114/167 64/115/168 29/116/169 65/117/170 66/118/171 28/119/172 23/120/173 22/121/174 21/122/175 20/24/176 19/23/177 41/123/178 34/43/179 33/42/180
f 25/36/181 29/35/182 67/124/183 18/125/184
f 28/34/185 66/126/186 65/127/187 29/35/188
f 4/5/189 68/128/190 26/94/191 59/93/192
f 60/129/193 14/130/194 23/120/195 28/119/196
f 18/20/197 67/131/198 60/132/199 15/17/200
f 69/133/201 61/112/202 33/42/203 32/134/204
f 70/135/205 71/136/206 11/13/207 14/16/208
f 26/137/209 72/138/210 64/139/211 24/140/212
f 3/141/213 2/142/214 73/143/215 74/144/216
f 62/113/217 75/145/218 64/115/219 63/114/220
f 72/146/221 67/147/222 29/116/223 64/115/224
f 2/142/225 1/148/226 30/149/227 24/140/228 64/139/229 75/150/230 62/151/231 73/143/232
f 67/131/233 76/152/234 77/153/235 60/132/236
f 78/154/237 74/155/238 73/143/239 62/151/240
f 62/156/241 61/157/242 69/158/243 78/159/244
f 72/160/245 79/161/246 78/159/247 80/162/248
f 74/155/249 78/154/250 79/163/251 72/164/252 26/165/253 68/166/254 4/4/255 3/3/256
f 32/41/257 8/40/258 7/167/259 10/168/260 11/169/261 71/170/262 70/171/263 14/172/264 60/173/265 77/174/266 76/175/267 67/176/268 72/160/269 80/162/270 78/159/271 69/158/272
