# This file uses centimeters as units for non-parametric coordinates.

mtllib buro.mtl
v 1.353226 1.603522 -6.068175
v 1.353226 1.566518 -6.241253
v 1.353226 1.603522 -6.241253
v 1.353226 0.660545 -6.241253
v 1.353226 -0.255916 -6.241253
v -2.101645 -0.255916 -6.241253
v -2.101645 0.660545 -6.241253
v -2.101645 -0.255916 -2.511597
v -2.101645 0.660545 -2.511597
v -2.101645 0.687060 -6.241253
v 1.353226 0.687060 -6.241253
v -2.101645 0.687060 -2.511597
v -2.101645 1.566518 -6.241253
v 1.353226 -0.255916 -2.511597
v -2.101645 1.566518 -2.511597
v -2.101645 1.603522 -6.241253
v -2.101645 1.603522 -2.511597
v -2.101645 2.509494 -6.241253
v 1.353226 2.509494 -6.241253
v -2.101645 2.509494 -2.511597
v 1.353226 0.348508 -4.984517
v 1.595070 0.348508 -4.984517
v 1.595070 0.082636 -4.984517
v 1.353226 0.082636 -4.984517
v 1.595070 0.082636 -3.768334
v 1.353226 0.082636 -3.768334
v 1.595070 0.348508 -3.768334
v 1.353226 0.348508 -3.768334
v 1.353226 0.660545 -2.511597
v 1.353226 0.687060 -2.511597
v 1.353226 1.259188 -4.984517
v 1.595070 1.259188 -4.984517
v 1.595070 0.993316 -4.984517
v 1.353226 0.993316 -4.984517
v 1.595070 0.993316 -3.768334
v 1.353226 0.993316 -3.768334
v 1.353226 2.509494 -2.511597
v 1.595070 1.259188 -3.768334
v 1.353226 1.259188 -3.768334
v 1.353226 1.566518 -2.511597
v 1.353226 2.101082 -4.984517
v 1.595070 2.101082 -4.984517
v 1.595070 1.835209 -4.984517
v 1.353226 1.835209 -4.984517
v 1.353226 1.603522 -2.511597
v 1.595070 1.835209 -3.768334
v 1.353226 1.835209 -3.768334
v 1.595070 2.101082 -3.768334
v 1.353226 2.101082 -3.768334
vt 0.033407 0.009919
vt 0.875000 0.000000
vt 0.875000 0.009811
vt 0.625000 0.507030
vt 0.625000 0.750000
vt 0.375000 0.750000
vt 0.375000 0.507030
vt 0.125000 0.242970
vt 0.125000 0.000000
vt 0.375000 0.000000
vt 0.375000 0.242970
vt 0.375000 0.500000
vt 0.625000 0.500000
vt 0.375000 0.250000
vt 0.125000 0.250000
vt 0.625000 0.509811
vt 0.625000 0.742970
vt 0.375000 0.742970
vt 0.375000 0.509811
vt 0.625000 1.000000
vt 0.375000 1.000000
vt 0.375000 0.007030
vt 0.375000 0.240189
vt 0.125000 0.240189
vt 0.125000 0.007030
vt 0.625000 0.740189
vt 0.625000 0.750000
vt 0.375000 0.750000
vt 0.375000 0.740189
vt 0.125000 0.009811
vt 0.125000 0.000000
vt 0.375000 0.000000
vt 0.375000 0.009811
vt 0.375000 0.500000
vt 0.625000 0.500000
vt 0.375000 0.250000
vt 0.125000 0.250000
vt 0.378667 0.500000
vt 0.625000 0.500000
vt 0.625000 0.750000
vt 0.378667 0.750000
vt 0.625000 1.000000
vt 0.378667 1.000000
vt 0.625000 0.000000
vt 0.875000 0.000000
vt 0.875000 0.250000
vt 0.625000 0.250000
vt 0.378667 0.250000
vt 0.625000 0.000000
vt 0.625000 0.242970
vt 0.875000 0.242970
vt 0.875000 0.250000
vt 0.625000 0.250000
vt 0.378667 0.500000
vt 0.625000 0.500000
vt 0.625000 0.750000
vt 0.378667 0.750000
vt 0.378667 0.000000
vt 0.625000 1.000000
vt 0.378667 1.000000
vt 0.625000 0.250000
vt 0.625000 0.000000
vt 0.875000 0.000000
vt 0.875000 0.250000
vt 0.625000 0.250000
vt 0.378667 0.250000
vt 0.625000 0.007030
vt 0.625000 0.240189
vt 0.378667 0.500000
vt 0.625000 0.500000
vt 0.625000 0.750000
vt 0.378667 0.750000
vt 0.625000 0.000000
vt 0.625000 0.009811
vt 0.378667 0.000000
vt 0.625000 1.000000
vt 0.378667 1.000000
vt 0.625000 0.000000
vt 0.875000 0.000000
vt 0.875000 0.250000
vt 0.625000 0.250000
vt 0.378667 0.250000
vt 0.378667 0.000000
vt 0.709239 0.160244
vt 0.790761 0.160244
vt 0.790761 0.089756
vt 0.875000 0.000000
vt 0.709239 0.089756
vt 0.709239 0.158711
vt 0.790761 0.158711
vt 0.790761 0.088223
vt 0.875000 0.007030
vt 0.875000 0.240189
vt 0.709239 0.088223
vt 0.790761 0.071235
vt 0.709239 0.071235
vt 0.709239 0.141723
vt 0.790761 0.141723
vt 0.875000 0.250000
vn 1.000000 0.000000 0.000000
vn 1.000000 -0.000001 0.000000
vn 1.000000 -0.000001 0.000000
vn 0.000000 0.000000 -1.000000
vn 0.000000 0.000000 -1.000000
vn 0.000000 0.000000 -1.000000
vn 0.000000 0.000000 -1.000000
vn -1.000000 0.000000 0.000000
vn -1.000000 0.000000 0.000000
vn -1.000000 0.000000 0.000000
vn -1.000000 0.000000 0.000000
vn 0.000000 0.000000 -1.000000
vn 0.000000 0.000000 -1.000000
vn 0.000000 0.000000 -1.000000
vn 0.000000 0.000000 -1.000000
vn -1.000000 0.000000 0.000000
vn -1.000000 0.000000 0.000000
vn -1.000000 0.000000 0.000000
vn -1.000000 0.000000 0.000000
vn 0.000000 0.000000 -1.000000
vn 0.000000 0.000000 -1.000000
vn 0.000000 0.000000 -1.000000
vn 0.000000 0.000000 -1.000000
vn 0.000000 -1.000000 0.000000
vn 0.000000 -1.000000 0.000000
vn 0.000000 -1.000000 0.000000
vn 0.000000 -1.000000 0.000000
vn -1.000000 0.000000 0.000000
vn -1.000000 0.000000 0.000000
vn -1.000000 0.000000 0.000000
vn -1.000000 0.000000 0.000000
vn 0.000000 0.000000 -1.000000
vn 0.000000 0.000000 -1.000000
vn 0.000000 0.000000 -1.000000
vn 0.000000 0.000000 -1.000000
vn -1.000000 0.000000 0.000000
vn -1.000000 0.000000 0.000000
vn -1.000000 0.000000 0.000000
vn -1.000000 0.000000 0.000000
vn 0.000000 0.000000 -1.000000
vn 0.000000 0.000000 -1.000000
vn 0.000000 0.000000 -1.000000
vn 0.000000 0.000000 -1.000000
vn -1.000000 0.000000 0.000000
vn -1.000000 0.000000 0.000000
vn -1.000000 0.000000 0.000000
vn -1.000000 0.000000 0.000000
vn 0.000000 0.000000 -1.000000
vn 0.000000 0.000000 -1.000000
vn 0.000000 0.000000 -1.000000
vn 0.000000 0.000000 -1.000000
vn 0.000000 -1.000000 0.000000
vn 0.000000 -1.000000 0.000000
vn 0.000000 -1.000000 0.000000
vn 0.000000 -1.000000 0.000000
vn 1.000000 0.000000 0.000000
vn 1.000000 0.000000 0.000000
vn 1.000000 0.000000 0.000000
vn 1.000000 0.000000 0.000000
vn 0.000000 1.000000 0.000000
vn 0.000000 1.000000 0.000000
vn 0.000000 1.000000 0.000000
vn 0.000000 1.000000 0.000000
vn 0.000000 0.000000 1.000000
vn 0.000000 0.000000 1.000000
vn 0.000000 0.000000 1.000000
vn 0.000000 0.000000 1.000000
vn 1.000000 -0.000001 0.000000
vn 1.000000 -0.000001 0.000000
vn 1.000000 0.000001 0.000000
vn 1.000000 0.000000 0.000000
vn 0.000000 0.000000 -1.000000
vn 0.000000 0.000000 -1.000000
vn 0.000000 0.000000 -1.000000
vn 0.000000 0.000000 -1.000000
vn 0.000000 0.000000 1.000000
vn 0.000000 0.000000 1.000000
vn 0.000000 0.000000 1.000000
vn 0.000000 0.000000 1.000000
vn 0.000000 0.000000 1.000000
vn 0.000000 0.000000 1.000000
vn 0.000000 0.000000 1.000000
vn 0.000000 0.000000 1.000000
vn 0.000000 -1.000000 0.000000
vn 0.000000 -1.000000 0.000000
vn 0.000000 -1.000000 0.000000
vn 0.000000 -1.000000 0.000000
vn 0.000000 1.000000 0.000000
vn 0.000000 1.000000 0.000000
vn 0.000000 1.000000 0.000000
vn 0.000000 1.000000 0.000000
vn 1.000000 0.000000 0.000000
vn 1.000000 0.000000 0.000000
vn 1.000000 0.000000 0.000000
vn 1.000000 0.000000 0.000000
vn 0.000000 1.000000 0.000000
vn 0.000000 1.000000 0.000000
vn 0.000000 1.000000 0.000000
vn 0.000000 1.000000 0.000000
vn 0.000000 0.000000 1.000000
vn 0.000000 0.000000 1.000000
vn 0.000000 0.000000 1.000000
vn 0.000000 0.000000 1.000000
vn 0.000000 0.000000 -1.000000
vn 0.000000 0.000000 -1.000000
vn 0.000000 0.000000 -1.000000
vn 0.000000 0.000000 -1.000000
vn 1.000000 0.000003 0.000000
vn 1.000000 -0.000001 0.000000
vn 1.000000 0.000000 0.000000
vn 1.000000 0.000001 0.000000
vn 0.000000 0.000000 1.000000
vn 0.000000 0.000000 1.000000
vn 0.000000 0.000000 1.000000
vn 0.000000 0.000000 1.000000
vn 0.000000 0.000000 1.000000
vn 0.000000 0.000000 1.000000
vn 0.000000 0.000000 1.000000
vn 0.000000 0.000000 1.000000
vn 0.000000 -1.000000 0.000000
vn 0.000000 -1.000000 0.000000
vn 0.000000 -1.000000 0.000000
vn 0.000000 -1.000000 0.000000
vn 1.000000 0.000000 0.000000
vn 1.000000 0.000000 0.000000
vn 1.000000 0.000000 0.000000
vn 1.000000 0.000000 0.000000
vn 0.000000 1.000000 0.000000
vn 0.000000 1.000000 0.000000
vn 0.000000 1.000000 0.000000
vn 0.000000 1.000000 0.000000
vn 0.000000 0.000000 1.000000
vn 0.000000 0.000000 1.000000
vn 0.000000 0.000000 1.000000
vn 0.000000 0.000000 1.000000
vn 0.000000 0.000000 1.000000
vn 0.000000 0.000000 1.000000
vn 0.000000 0.000000 1.000000
vn 0.000000 0.000000 1.000000
vn 1.000000 0.000000 0.000000
vn 1.000000 -0.000000 0.000000
vn 1.000000 -0.000001 0.000000
vn 1.000000 -0.000000 0.000000
vn 1.000000 -0.000001 0.000000
vn 1.000000 -0.000001 0.000000
vn 1.000000 0.000000 0.000000
vn 1.000000 0.000001 0.000000
vn 1.000000 -0.000001 0.000000
vn 1.000000 -0.000000 0.000000
vn 1.000000 0.000001 0.000000
vn 1.000000 -0.000000 0.000000
vn 1.000000 -0.000000 0.000000
vn 1.000000 -0.000001 0.000000
vn 1.000000 0.000000 0.000000
vn 1.000000 -0.000001 0.000000
vn 1.000000 -0.000001 0.000000
vn 1.000000 0.000003 0.000000
vn 1.000000 -0.000001 0.000000
vn 1.000000 0.000000 0.000000
vn 1.000000 0.000001 0.000000
vn 1.000000 -0.000000 0.000000
vn 1.000000 0.000003 0.000000
vn 1.000000 0.000001 0.000000
vn 1.000000 0.000000 0.000000
vn 1.000000 -0.000000 0.000000
vn 1.000000 0.000000 0.000000
vn 1.000000 -0.000001 0.000000
vn 1.000000 -0.000000 0.000000
vn 1.000000 0.000001 0.000000
vn 1.000000 -0.000001 0.000000
vn 1.000000 -0.000001 0.000000
vn 1.000000 -0.000000 0.000000
vn 1.000000 0.000000 0.000000
vn 1.000000 -0.000001 0.000000
vn 1.000000 -0.000001 0.000000
vn 1.000000 -0.000000 0.000000
s off
usemtl buro:lambert11SG
f 1/1/1 2/2/2 3/3/3
usemtl buro:lambert13SG
f 4/4/4 5/5/5 6/6/6 7/7/7
f 7/8/8 6/9/9 8/10/10 9/11/11
f 7/7/12 10/12/13 11/13/14 4/4/15
f 9/11/16 12/14/17 10/15/18 7/8/19
usemtl buro:lambert12SG
f 2/16/20 11/17/21 10/18/22 13/19/23
usemtl buro:lambert13SG
f 6/6/24 5/5/25 14/20/26 8/21/27
usemtl buro:lambert12SG
f 12/22/28 15/23/29 13/24/30 10/25/31
usemtl buro:lambert11SG
f 3/26/32 2/27/33 13/28/34 16/29/35
f 16/30/36 13/31/37 15/32/38 17/33/39
f 16/29/40 18/34/41 19/35/42 3/26/43
f 17/33/44 20/36/45 18/37/46 16/30/47
usemtl buro:lambert14SG
f 21/38/48 22/39/49 23/40/50 24/41/51
f 24/41/52 23/40/53 25/42/54 26/43/55
f 25/44/56 23/45/57 22/46/58 27/47/59
f 28/48/60 27/47/61 22/39/62 21/38/63
usemtl buro:lambert13SG
f 9/11/64 8/10/65 14/49/66 29/50/67
f 4/51/68 11/52/69 30/53/70 29/50/71
usemtl buro:lambert14SG
f 31/54/72 32/55/73 33/56/74 34/57/75
f 26/58/76 25/44/77 27/47/78 28/48/79
usemtl buro:lambert13SG
f 29/50/80 30/53/81 12/14/82 9/11/83
usemtl buro:lambert14SG
f 34/57/84 33/56/85 35/59/86 36/60/87
usemtl buro:lambert11SG
f 20/36/88 37/61/89 19/35/90 18/34/91
usemtl buro:lambert14SG
f 35/62/92 33/63/93 32/64/94 38/65/95
f 39/66/96 38/65/97 32/55/98 31/54/99
usemtl buro:lambert12SG
f 30/67/100 40/68/101 15/23/102 12/22/103
usemtl buro:lambert14SG
f 41/69/104 42/70/105 43/71/106 44/72/107
usemtl buro:lambert11SG
f 40/73/108 2/2/109 1/1/110 45/74/111
usemtl buro:lambert14SG
f 36/75/112 35/62/113 38/65/114 39/66/115
usemtl buro:lambert11SG
f 17/33/116 15/32/117 40/73/118 45/74/119
usemtl buro:lambert14SG
f 44/72/120 43/71/121 46/76/122 47/77/123
f 46/78/124 43/79/125 42/80/126 48/81/127
f 49/82/128 48/81/129 42/70/130 41/69/131
usemtl buro:lambert11SG
f 45/74/132 37/61/133 20/36/134 17/33/135
usemtl buro:lambert14SG
f 47/83/136 46/78/137 48/81/138 49/82/139
usemtl buro:lambert13SG
f 29/50/140 28/84/141 21/85/142 24/86/143 5/87/144 4/51/145
f 29/50/146 14/49/147 5/87/148 24/86/149 26/88/150 28/84/151
usemtl buro:lambert12SG
f 39/89/152 31/90/153 34/91/154 11/92/155 2/93/156 40/68/157
f 11/92/158 34/91/159 36/94/160 39/89/161 40/68/162 30/67/163
usemtl buro:lambert11SG
f 1/1/164 44/95/165 47/96/166 49/97/167 37/61/168 45/74/169
f 49/97/170 41/98/171 44/95/172 1/1/173 3/3/174 19/99/175 37/61/176
